<?xml version="1.0" encoding="UTF-8" standalone="no"?>
<!-- Generator: Adobe Illustrator 16.0.0, SVG Export Plug-In . SVG Version: 6.00 Build 0)  -->

<svg
   xmlns:dc="http://purl.org/dc/elements/1.1/"
   xmlns:cc="http://creativecommons.org/ns#"
   xmlns:rdf="http://www.w3.org/1999/02/22-rdf-syntax-ns#"
   xmlns:svg="http://www.w3.org/2000/svg"
   xmlns="http://www.w3.org/2000/svg"
   xmlns:sodipodi="http://sodipodi.sourceforge.net/DTD/sodipodi-0.dtd"
   xmlns:inkscape="http://www.inkscape.org/namespaces/inkscape"
   version="1.1"
   id="Capa_1"
   x="0px"
   y="0px"
   width="611.997px"
   height="611.998px"
   viewBox="0 0 611.997 611.998"
   style="enable-background:new 0 0 611.997 611.998;"
   xml:space="preserve"
   sodipodi:docname="icon.svg"
   inkscape:version="0.92.3 (2405546, 2018-03-11)"><metadata
   id="metadata45"><rdf:RDF><cc:Work
       rdf:about=""><dc:format>image/svg+xml</dc:format><dc:type
         rdf:resource="http://purl.org/dc/dcmitype/StillImage" /><dc:title></dc:title></cc:Work></rdf:RDF></metadata><defs
   id="defs43" /><sodipodi:namedview
   pagecolor="#ffffff"
   bordercolor="#666666"
   borderopacity="1"
   objecttolerance="10"
   gridtolerance="10"
   guidetolerance="10"
   inkscape:pageopacity="0"
   inkscape:pageshadow="2"
   inkscape:window-width="1920"
   inkscape:window-height="1025"
   id="namedview41"
   showgrid="false"
   showguides="true"
   inkscape:guide-bbox="true"
   inkscape:zoom="0.38562218"
   inkscape:cx="-255.37711"
   inkscape:cy="125.38231"
   inkscape:window-x="0"
   inkscape:window-y="27"
   inkscape:window-maximized="1"
   inkscape:current-layer="g6"><sodipodi:guide
     position="178.28331,44.732905"
     orientation="0,1"
     id="guide3931"
     inkscape:locked="false" /><sodipodi:guide
     position="272.93554,291.08803"
     orientation="0,1"
     id="guide4906"
     inkscape:locked="false" /></sodipodi:namedview>
<g
   id="g8">
	<g
   id="g6">
		
		<path
   id="path4"
   d="m 306.18164,18.300781 c -4.81,0 -8.98186,1.982657 -12.50586,5.472657 L 5.3613281,312.08789 c -6.917,6.91 -7.375,17.99247 0,24.35547 6.4109999,7.389 17.4540939,6.91 24.3710939,0 L 306.18164,60.650391 581.98828,339.04492 c 2.873,2.874 7.05481,4.51563 12.50781,4.51563 4.81,0 8.97682,-1.64163 12.50782,-4.51563 6.417,-6.431 6.896,-18.06201 0,-25.04101 L 467.81836,174.22461 V 78.919922 c 0,-9.921 -8.01799,-17.583984 -17.95898,-17.583984 -9.30501,0 -17.00196,7.663984 -17.00196,17.583984 V 139.26367 L 318.04688,23.773438 c -3.518,-3.558 -7.69824,-5.472657 -11.86524,-5.472657 z" />
	<g
   id="g4930"><rect
     y="336.14508"
     x="521.55969"
     height="209.40186"
     width="33.711754"
     id="rect4889-3"
     style="fill:#000000;fill-opacity:1;stroke:none;stroke-width:216.33306885;stroke-miterlimit:4;stroke-dasharray:none;stroke-opacity:1" /><rect
     y="329.66205"
     x="42.139675"
     height="209.40186"
     width="33.711754"
     id="rect4889-3-6"
     style="fill:#000000;fill-opacity:1;stroke:none;stroke-width:216.33306885;stroke-miterlimit:4;stroke-dasharray:none;stroke-opacity:1" /><rect
     y="537.06171"
     x="42.139675"
     height="28.205631"
     width="513.13184"
     id="rect4925"
     style="fill:#000000;fill-opacity:1;stroke:none;stroke-width:30.01185036;stroke-miterlimit:4;stroke-dasharray:none;stroke-opacity:1" /></g><path
   inkscape:connector-curvature="0"
   d="M 375.15287,537.54694 V 414.15483 c 0,-3.32743 1.24779,-6.23893 3.60471,-8.7345 2.35693,-2.49557 5.26843,-3.60472 8.59586,-3.60472 h 12.20057 v -9.28906 c 0,-4.29793 1.52507,-7.90264 4.43657,-10.95279 3.05014,-3.05014 6.51621,-4.57521 10.81414,-4.57521 h 6.10028 c 4.15929,0 7.764,1.52507 10.81415,4.57521 3.05013,3.05015 4.43657,6.65486 4.43657,10.95279 v 9.28906 h 36.6017 v -9.28906 c 0,-4.29793 1.52507,-7.90264 4.43657,-10.95279 3.05014,-3.05014 6.51622,-4.57521 10.81414,-4.57521 h 6.10029 c 4.15928,0 7.76399,1.52507 10.81414,4.57521 3.05014,3.05015 4.43657,6.65486 4.43657,10.95279 v 9.28906 h 12.20056 c 3.32743,0 6.10029,1.24779 8.59586,3.60472 2.35693,2.49557 3.60472,5.26842 3.60472,8.7345 V 537.4083 c 0,3.32743 -1.24779,6.23893 -3.60472,8.7345 -2.35693,2.49557 -5.26843,3.60471 -8.59586,3.60471 H 387.35344 c -3.32743,0 -6.10029,-1.24779 -8.59586,-3.60471 -2.35692,-2.49557 -3.60471,-5.26843 -3.60471,-8.59586 z m 12.20057,0 H 521.55969 V 438.83325 H 387.35344 Z m 24.40114,-117.15319 c 0,0.83186 0.27728,1.66372 0.83185,2.21829 0.55457,0.55457 1.24779,0.83186 2.21829,0.83186 h 6.10028 c 0.83186,0 1.66372,-0.27729 2.21829,-0.83186 0.55457,-0.55457 0.83185,-1.24779 0.83185,-2.21829 v -27.72856 c 0,-0.83186 -0.27728,-1.66372 -0.83185,-2.21829 -0.55457,-0.55457 -1.24778,-0.83185 -2.21829,-0.83185 h -6.10028 c -0.83186,0 -1.66372,0.27728 -2.21829,0.83185 -0.55457,0.55457 -0.83185,1.38643 -0.83185,2.21829 z m 73.20341,0 c 0,0.83186 0.27729,1.66372 0.83185,2.21829 0.55458,0.55457 1.24779,0.83186 2.21829,0.83186 h 6.10029 c 0.83185,0 1.66371,-0.27729 2.21828,-0.83186 0.55457,-0.55457 0.83186,-1.24779 0.83186,-2.21829 v -27.72856 c 0,-0.83186 -0.27729,-1.66372 -0.83186,-2.21829 -0.55457,-0.55457 -1.24778,-0.83185 -2.21828,-0.83185 h -6.10029 c -0.83185,0 -1.66371,0.27728 -2.21829,0.83185 -0.55456,0.55457 -0.83185,1.38643 -0.83185,2.21829 z"
   id="path4980"
   style="fill:#ff0000;fill-opacity:1;stroke-width:1.38642836" /></g>
</g>
<g
   id="g10">
</g>
<g
   id="g12">
</g>
<g
   id="g14">
</g>
<g
   id="g16">
</g>
<g
   id="g18">
</g>
<g
   id="g20">
</g>
<g
   id="g22">
</g>
<g
   id="g24">
</g>
<g
   id="g26">
</g>
<g
   id="g28">
</g>
<g
   id="g30">
</g>
<g
   id="g32">
</g>
<g
   id="g34">
</g>
<g
   id="g36">
</g>
<g
   id="g38">
</g>
</svg>